<svg xmlns="http://www.w3.org/2000/svg" width="1200" height="630" viewBox="0 0 1200 630">
  <defs>
    <pattern id="grid" width="36" height="36" patternUnits="userSpaceOnUse">
      <path d="M36 0H0v36" fill="none" stroke="#B6FF00" stroke-opacity=".12" stroke-width="3"/>
    </pattern>
    <pattern id="scan" width="8" height="8" patternUnits="userSpaceOnUse">
      <rect y="0" width="8" height="2" fill="#000000" opacity=".18"/>
    </pattern>
  </defs>
  <rect width="1200" height="630" fill="#3C1A47"/>
  <rect width="1200" height="630" fill="url(#grid)"/>
  <rect width="1200" height="630" fill="url(#scan)"/>
  <g transform="translate(92 78)">
    <rect x="0" y="0" width="1016" height="474" fill="#2A1134" stroke="#B6FF00" stroke-width="10"/>
    <rect x="24" y="24" width="968" height="426" fill="none" stroke="#B6FF00" stroke-width="4" opacity=".7"/>
    <text x="80" y="142" font-family="Arial, sans-serif" font-size="90" font-weight="900" fill="#B6FF00">찌릿</text>
    <text x="84" y="214" font-family="Arial, sans-serif" font-size="40" font-weight="900" fill="#F7FFE6">24가지 한 판 미니게임</text>
    <text x="84" y="288" font-family="Arial, sans-serif" font-size="34" fill="#D8C8E2">반응속도 · 광클 · 자유투 · 카드 짝맞추기</text>
    <text x="84" y="346" font-family="Arial, sans-serif" font-size="29" fill="#F7FFE6">한 판 누르면 바로 시작되는 오락실 감성</text>
    <g transform="translate(764 94)">
      <rect width="164" height="164" fill="#3C1A47" stroke="#B6FF00" stroke-width="10"/>
      <path d="M38 112h31v31h16v-31h16V96h16V65h16V34h-31v16H85v31H69v15H38Z" fill="#B6FF00"/>
      <text x="82" y="108" text-anchor="middle" font-family="Arial, sans-serif" font-size="46" font-weight="900" fill="#3C1A47">찌</text>
    </g>
  </g>
</svg>
